<svg width="178" height="171" viewBox="0 0 178 171" fill="none" xmlns="http://www.w3.org/2000/svg">
<path d="M174.026 154.74H158.109V146.313H174.026V154.74ZM154.349 142.625V170.651H158.109V158.427H177.786V142.625" fill="black"/>
<path d="M127.964 167V158.573H145.286L145.495 154.885H127.964V146.453H147.453L147.771 142.766H124.203V170.651H147.453L147.771 167" fill="black"/>
<path d="M66.427 167V158.573H83.7448L83.9583 154.885H66.427V146.453H85.9166L86.2291 142.766H62.6666V170.651H85.9114L86.2343 167" fill="black"/>
<path d="M25.5885 142.688H20.6927L9.73958 154.802H3.76563V142.688H0V170.573H3.76563V158.49H9.77604L20.6927 170.568L25.5885 170.526L13.0885 156.646L24.7396 143.641" fill="black"/>
<path d="M33.0208 167.146H29.5104V170.615H33.6614L36.4843 170.599L36.5052 146.375H51.1041V170.573H54.8698V142.688H32.8541" fill="black"/>
<path d="M112.646 166.958H96.7291V158.427H112.646V166.958ZM112.646 158.427V154.74H96.7291V146.313H112.646V154.74H116.406V142.625H92.9635V170.651H116.406V158.427" fill="black"/>
<path d="M67 56H54L88 22V35L67 56Z" fill="black"/>
<path d="M111 56H124L90 22V35L111 56Z" fill="black"/>
<path d="M90 79L90 92L124 58L111 58L90 79Z" fill="black"/>
<path d="M88 79L88 92L54 58L67 58L88 79Z" fill="black"/>
<path d="M108.026 112L91 95L126 60L143 77L108.026 112ZM90 79L111 58H124L90 92V79ZM89 77L69 57L89 37L109 57L89 77ZM88 92L54 58H67L88 79V92ZM70 112L35 77L52 60L87 95L70 112ZM88 22V35L67 55.9844H54L88 22ZM35 38L70 3L87 20L52 55L35 38ZM90 22L124 55.9844H111L90 35V22ZM108 3L143 38L126 55L91 20L108 3ZM145.354 75.9271L127 57L145.307 38.6094C145.807 38.1094 145.807 37.2969 145.307 36.7969L108.885 0.375C108.385 -0.125 107.573 -0.125 107.068 0.375L89 18.5L70.6719 0.375C70.1719 -0.125 69.3594 -0.125 68.8542 0.375L32.4375 36.7969C31.9323 37.2969 31.9323 38.1094 32.4375 38.6094L51.0469 57.224C51.0677 57.2448 51.0885 57.25 51.1094 57.2656C51.0885 57.2813 51.0677 57.2969 51.0469 57.3125L32.4375 75.9271C31.9323 76.4271 31.9323 77.2396 32.4375 77.7448L68.8542 114.161C69.1042 114.411 69.4375 114.536 69.7656 114.536C70.0938 114.536 70.4219 114.411 70.6719 114.161L88.8958 95.9375L107.12 114.161C107.359 114.406 107.688 114.536 108.026 114.536C108.365 114.536 108.693 114.406 108.932 114.161L145.354 77.7448C145.594 77.5 145.729 77.1771 145.729 76.8333C145.729 76.4948 145.594 76.1667 145.354 75.9271Z" fill="white"/>
<path d="M70 3L87 20L52 55L35 38L70 3Z" fill="black"/>
<path d="M89 37L109 57L89 77L69 57L89 37Z" fill="black"/>
<path d="M126 60L143 77L108 112L91 95L126 60Z" fill="black"/>
<path d="M52 60L35 77L70 112L87 95L52 60Z" fill="black"/>
<path d="M108 3L91 20L126 55L143 38L108 3Z" fill="black"/>
</svg>
