<?xml version="1.0" encoding="UTF-8"?>
<svg xmlns="http://www.w3.org/2000/svg" xmlns:xlink="http://www.w3.org/1999/xlink" width="224.88pt" height="215.85pt" viewBox="0 0 224.88 215.85" version="1.1">
<defs>
<clipPath id="clip1">
  <path d="M 195 180 L 224.878906 180 L 224.878906 215.851563 L 195 215.851563 Z M 195 180 "/>
</clipPath>
<clipPath id="clip2">
  <path d="M 157 180 L 187 180 L 187 215.851563 L 157 215.851563 Z M 157 180 "/>
</clipPath>
<clipPath id="clip3">
  <path d="M 79 180 L 110 180 L 110 215.851563 L 79 215.851563 Z M 79 180 "/>
</clipPath>
<clipPath id="clip4">
  <path d="M 0 180 L 33 180 L 33 215.851563 L 0 215.851563 Z M 0 180 "/>
</clipPath>
<clipPath id="clip5">
  <path d="M 37 180 L 70 180 L 70 215.851563 L 37 215.851563 Z M 37 180 "/>
</clipPath>
<clipPath id="clip6">
  <path d="M 117 180 L 148 180 L 148 215.851563 L 117 215.851563 Z M 117 180 "/>
</clipPath>
</defs>
<g id="surface1">
<g clip-path="url(#clip1)" clip-rule="nonzero">
<path style=" stroke:none;fill-rule:nonzero;fill:rgb(12.5%,7.499695%,0%);fill-opacity:1;" d="M 220.117188 195.726563 L 199.984375 195.726563 L 199.984375 185.0625 L 220.117188 185.0625 Z M 195.226563 180.398438 L 195.226563 215.851563 L 199.984375 215.851563 L 199.984375 200.390625 L 224.878906 200.390625 L 224.878906 180.398438 "/>
</g>
<g clip-path="url(#clip2)" clip-rule="nonzero">
<path style=" stroke:none;fill-rule:nonzero;fill:rgb(12.5%,7.499695%,0%);fill-opacity:1;" d="M 161.859375 211.234375 L 161.859375 200.570313 L 183.765625 200.570313 L 184.03125 195.90625 L 161.859375 195.90625 L 161.859375 185.242188 L 186.507813 185.242188 L 186.90625 180.578125 L 157.097656 180.578125 L 157.097656 215.851563 L 186.507813 215.851563 L 186.90625 211.234375 "/>
</g>
<g clip-path="url(#clip3)" clip-rule="nonzero">
<path style=" stroke:none;fill-rule:nonzero;fill:rgb(12.5%,7.499695%,0%);fill-opacity:1;" d="M 84.019531 211.234375 L 84.019531 200.570313 L 105.925781 200.570313 L 106.191406 195.90625 L 84.019531 195.90625 L 84.019531 185.242188 L 108.667969 185.242188 L 109.066406 180.578125 L 79.261719 180.578125 L 79.261719 215.851563 L 108.667969 215.851563 L 109.070313 211.234375 "/>
</g>
<g clip-path="url(#clip4)" clip-rule="nonzero">
<path style=" stroke:none;fill-rule:nonzero;fill:rgb(12.5%,7.499695%,0%);fill-opacity:1;" d="M 32.363281 180.480469 L 26.167969 180.476563 L 12.316406 195.804688 L 4.757813 195.804688 L 4.757813 180.476563 L 0 180.476563 L 0 215.75 L 4.757813 215.75 L 4.757813 200.46875 L 12.367188 200.46875 L 26.167969 215.746094 L 32.363281 215.695313 L 16.554688 198.136719 L 31.292969 181.683594 "/>
</g>
<g clip-path="url(#clip5)" clip-rule="nonzero">
<path style=" stroke:none;fill-rule:nonzero;fill:rgb(12.5%,7.499695%,0%);fill-opacity:1;" d="M 41.769531 211.414063 L 37.328125 211.414063 L 37.328125 215.800781 L 42.578125 215.800781 L 46.148438 215.78125 L 46.171875 185.144531 L 64.644531 185.144531 L 64.644531 215.753906 L 69.402344 215.753906 L 69.402344 180.480469 L 41.550781 180.480469 "/>
</g>
<g clip-path="url(#clip6)" clip-rule="nonzero">
<path style=" stroke:none;fill-rule:nonzero;fill:rgb(12.5%,7.499695%,0%);fill-opacity:1;" d="M 142.480469 211.183594 L 122.347656 211.183594 L 122.347656 200.390625 L 142.480469 200.390625 Z M 142.480469 200.390625 L 142.480469 195.726563 L 122.347656 195.726563 L 122.347656 185.0625 L 142.480469 185.0625 L 142.480469 195.726563 L 147.238281 195.726563 L 147.238281 180.398438 L 117.589844 180.398438 L 117.589844 215.851563 L 147.238281 215.851563 L 147.238281 200.390625 "/>
</g>
<path style=" stroke:none;fill-rule:nonzero;fill:rgb(45.098877%,37.998962%,31.399536%);fill-opacity:1;" d="M 156.382813 70.8125 L 114.03125 28.464844 L 114.03125 43.925781 L 141.421875 70.8125 Z M 156.382813 70.8125 "/>
<path style=" stroke:none;fill-rule:nonzero;fill:rgb(62.69989%,54.098511%,45.498657%);fill-opacity:1;" d="M 84.328125 70.8125 L 110.785156 43.894531 L 110.785156 28.464844 L 68.433594 70.8125 Z M 84.328125 70.8125 "/>
<path style=" stroke:none;fill-rule:nonzero;fill:rgb(45.098877%,37.998962%,31.399536%);fill-opacity:1;" d="M 68.4375 74.0625 L 110.785156 116.410156 L 110.785156 100.800781 L 84.132813 74.0625 Z M 68.4375 74.0625 "/>
<path style=" stroke:none;fill-rule:nonzero;fill:rgb(62.69989%,54.098511%,45.498657%);fill-opacity:1;" d="M 140.847656 74.0625 L 114.03125 100.800781 L 114.03125 116.472656 L 156.441406 74.0625 Z M 140.847656 74.0625 "/>
<path style=" stroke:none;fill-rule:nonzero;fill:rgb(75.299072%,65.899658%,56.898499%);fill-opacity:1;" d="M 112.402344 46.882813 L 87.195313 72.53125 L 112.410156 97.828125 L 138.152344 72.15625 Z M 112.402344 46.882813 "/>
<path style=" stroke:none;fill-rule:nonzero;fill:rgb(12.5%,7.499695%,0%);fill-opacity:1;" d="M 136.636719 140.953125 L 115.390625 119.707031 L 159.160156 75.9375 L 180.40625 97.183594 Z M 114.03125 100.804688 L 140.847656 74.0625 L 156.441406 74.0625 L 114.03125 116.472656 Z M 112.410156 97.828125 L 87.195313 72.53125 L 112.40625 46.882813 L 138.15625 72.15625 Z M 110.785156 116.410156 L 68.433594 74.0625 L 84.132813 74.0625 L 110.785156 100.800781 Z M 88.242188 140.953125 L 44.472656 97.183594 L 65.71875 75.9375 L 109.488281 119.707031 Z M 110.785156 28.464844 L 110.785156 43.894531 L 84.328125 70.8125 L 68.433594 70.8125 Z M 44.472656 47.6875 L 88.242188 3.921875 L 109.488281 25.164063 L 65.71875 68.933594 Z M 114.03125 28.464844 L 156.378906 70.8125 L 141.421875 70.8125 L 114.03125 43.925781 Z M 136.574219 3.921875 L 180.34375 47.6875 L 159.097656 68.933594 L 115.328125 25.164063 Z M 183.855469 96.035156 L 160.308594 72.492188 C 160.277344 72.460938 160.234375 72.449219 160.199219 72.417969 C 160.214844 72.40625 160.234375 72.394531 160.246094 72.382813 L 183.789063 48.835938 C 184.425781 48.203125 184.425781 47.175781 183.789063 46.539063 L 137.726563 0.472656 C 137.089844 -0.160156 136.0625 -0.160156 135.425781 0.472656 L 112.40625 23.492188 L 89.390625 0.472656 C 88.753906 -0.160156 87.726563 -0.160156 87.09375 0.472656 L 41.027344 46.539063 C 40.390625 47.175781 40.390625 48.203125 41.027344 48.835938 L 64.570313 72.382813 C 64.59375 72.402344 64.621094 72.410156 64.644531 72.433594 C 64.621094 72.453125 64.59375 72.46875 64.570313 72.492188 L 41.027344 96.035156 C 40.390625 96.671875 40.390625 97.699219 41.027344 98.332031 L 87.09375 144.398438 C 87.410156 144.714844 87.824219 144.875 88.242188 144.875 C 88.65625 144.875 89.074219 144.714844 89.390625 144.398438 L 112.4375 121.347656 L 135.488281 144.398438 C 135.792969 144.703125 136.207031 144.875 136.636719 144.875 C 137.070313 144.875 137.480469 144.703125 137.785156 144.398438 L 183.855469 98.332031 C 184.15625 98.027344 184.328125 97.613281 184.328125 97.183594 C 184.328125 96.753906 184.15625 96.339844 183.855469 96.035156 "/>
<path style=" stroke:none;fill-rule:nonzero;fill:rgb(76.499939%,61.199951%,46.299744%);fill-opacity:1;" d="M 109.484375 25.164063 L 88.238281 3.921875 L 44.472656 47.6875 L 65.71875 68.933594 Z M 109.484375 25.164063 "/>
<path style=" stroke:none;fill-rule:nonzero;fill:rgb(76.499939%,61.199951%,46.299744%);fill-opacity:1;" d="M 44.472656 97.183594 L 88.242188 140.953125 L 109.488281 119.707031 L 65.71875 75.9375 Z M 44.472656 97.183594 "/>
<path style=" stroke:none;fill-rule:nonzero;fill:rgb(76.499939%,61.199951%,46.299744%);fill-opacity:1;" d="M 115.390625 119.707031 L 136.636719 140.953125 L 180.40625 97.183594 L 159.160156 75.9375 Z M 115.390625 119.707031 "/>
<path style=" stroke:none;fill-rule:nonzero;fill:rgb(76.499939%,61.199951%,46.299744%);fill-opacity:1;" d="M 180.34375 47.6875 L 136.574219 3.921875 L 115.328125 25.164063 L 159.097656 68.933594 Z M 180.34375 47.6875 "/>
</g>
</svg>
